<svg width="50" height="50" viewBox="0 0 50 50" fill="none" xmlns="http://www.w3.org/2000/svg">
    <path d="M44.9029 8.33348C44.7136 8.31397 44.5228 8.31397 44.3335 8.33348H5.44461C5.19536 8.33732 4.94777 8.37469 4.7085 8.44459L24.7779 28.4307L44.9029 8.33348Z" fill="white"/>
    <path d="M46.9584 10.2637L26.7362 30.4026C26.2158 30.9199 25.5117 31.2103 24.7779 31.2103C24.044 31.2103 23.34 30.9199 22.8195 30.4026L2.77789 10.4164C2.71627 10.6429 2.68361 10.8762 2.68066 11.1109V38.8887C2.68066 39.6254 2.97332 40.3319 3.49426 40.8529C4.01519 41.3738 4.72173 41.6664 5.45844 41.6664H44.3473C45.084 41.6664 45.7906 41.3738 46.3115 40.8529C46.8324 40.3319 47.1251 39.6254 47.1251 38.8887V11.1109C47.114 10.8215 47.0578 10.5357 46.9584 10.2637ZM7.36122 38.8887H5.43066V36.9026L15.5279 26.8887L17.4862 28.847L7.36122 38.8887ZM44.3195 38.8887H42.3751L32.2501 28.847L34.2084 26.8887L44.3057 36.9026L44.3195 38.8887Z" fill="white"/>
</svg>
