<svg width="50" height="50" viewBox="0 0 50 50" fill="none" xmlns="http://www.w3.org/2000/svg">
    <path d="M6.75781 11.2402L11.958 6.04492C12.3248 5.67648 12.7608 5.38415 13.241 5.18472C13.7211 4.98529 14.2359 4.88269 14.7559 4.88281C15.8154 4.88281 16.8115 5.29785 17.5586 6.04492L23.1543 11.6406C23.5227 12.0075 23.8151 12.4435 24.0145 12.9236C24.2139 13.4037 24.3165 13.9186 24.3164 14.4385C24.3164 15.498 23.9014 16.4941 23.1543 17.2412L19.0625 21.333C20.0203 23.4441 21.3519 25.3647 22.9932 27.002C24.6303 28.6472 26.5506 29.9837 28.6621 30.9473L32.7539 26.8555C33.1207 26.487 33.5567 26.1947 34.0369 25.9953C34.517 25.7958 35.0318 25.6932 35.5518 25.6934C36.6113 25.6934 37.6074 26.1084 38.3545 26.8555L43.9551 32.4463C44.324 32.8138 44.6166 33.2506 44.816 33.7316C45.0154 34.2126 45.1178 34.7283 45.1172 35.249C45.1172 36.3086 44.7021 37.3047 43.9551 38.0518L38.7646 43.2422C37.5732 44.4385 35.9277 45.1172 34.2383 45.1172C33.8818 45.1172 33.54 45.0879 33.2031 45.0293C26.6211 43.9453 20.0928 40.4443 14.8242 35.1807C9.56054 29.9219 6.06445 23.3984 4.96582 16.7969C4.63379 14.7803 5.30273 12.7051 6.75781 11.2402Z" fill="white"/>
</svg>
